<?xml version="1.0" encoding="utf-8"?>
<svg xmlns="http://www.w3.org/2000/svg" fill="none" height="60" viewBox="0 0 74 60" width="74">
<path d="M24.5461 20.621C24.5461 20.4686 24.5461 18.2513 24.5461 18.2513H23.2285C23.2285 18.2513 23.2285 20.4342 23.2285 20.5031C23.2285 20.9062 22.8549 21.1766 22.2256 21.1766C21.5668 21.1766 21.2079 20.916 21.2079 20.4981C21.2079 20.4293 21.2079 18.2513 21.2079 18.2513H19.8755C19.8755 18.2513 19.8755 20.3211 19.8755 20.4981C19.8755 21.6682 20.8342 22.1648 22.1715 22.1648C23.6022 22.1648 24.5461 21.6633 24.5461 20.621Z" fill="white"/>
<path d="M28.9832 22.1107V21.0832H26.6332V18.2513H25.3008V22.1107H28.9832Z" fill="white"/>
<path d="M32.9431 19.2199V18.2513H28.3364V19.2199H29.9637V22.1107H31.3108V19.2199H32.9431Z" fill="white"/>
<path d="M34.7143 22.1107V18.2513H33.3623V22.1107H34.7143Z" fill="white"/>
<path d="M40.9171 22.1107V18.2513H39.2504L38.1983 20.567L37.1954 18.2513H35.4746V22.1107H36.7283V20.0262L37.6329 22.1107H38.7539L39.6683 20.0262V22.1107H40.9171Z" fill="white"/>
<path d="M43.0056 21.3978H45.0902L45.4295 22.1107H46.8503L44.9034 18.2513H43.3154L41.2554 22.1107H42.6467L43.0056 21.3978ZM44.6723 20.5325H43.4383L43.925 19.6033L44.0725 19.2494L44.2102 19.5984L44.6723 20.5325Z" fill="white"/>
<path d="M51.0289 19.2199V18.2513H46.4224V19.2199H48.0497V22.1107H49.3969V19.2199H51.0289Z" fill="white"/>
<path d="M55.5088 22.1107V21.152H52.7418V20.6505H55.3958V19.7115H52.7418V19.2149H55.4748V18.2513H51.4438V22.1107H55.5088Z" fill="white"/>
<path d="M29.9231 24.1624H28.6497C28.6497 24.1624 27.8188 26.5911 27.8188 26.6501C27.8188 26.5911 27.042 24.1624 27.042 24.1624H25.6605C25.6605 24.1624 24.8886 26.5911 24.8886 26.6501C24.8886 26.5911 24.0528 24.1624 24.0528 24.1624H22.6221L24.0676 28.0218H25.5081C25.5081 28.0218 26.2849 25.716 26.2898 25.6521C26.2947 25.716 27.0666 28.0218 27.0666 28.0218H28.512L29.9231 24.1624Z" fill="white"/>
<path d="M31.6655 28.0218V24.1624H30.3135V28.0218H31.6655Z" fill="white"/>
<path d="M36.9244 28.0218V24.1624H35.6658V26.2617L33.8123 24.1624H32.4258V28.0218H33.6943V25.8733L35.6068 28.0218H36.9244Z" fill="white"/>
<path d="M42.1914 28.0218V24.1624H40.9328V26.2617L39.0793 24.1624H37.6929V28.0218H38.9613V25.8733L40.8738 28.0218H42.1914Z" fill="white"/>
<path d="M47.0259 28.0218V27.0631H44.258V26.5616H46.9128V25.6226H44.258V25.126H46.9915V24.1624H42.96V28.0218H47.0259Z" fill="white"/>
<path d="M52.2228 25.3374C52.2228 24.9884 52.1388 24.7376 51.9618 24.5557C51.7308 24.3099 51.3328 24.1624 50.7228 24.1624H47.6504V28.0218H48.9631V26.66H50.1578L51.1168 28.0218H52.5818L51.4168 26.4485C51.6768 26.4092 51.8888 26.2519 52.0258 26.0651C52.1488 25.893 52.2228 25.6373 52.2228 25.3374ZM50.9448 25.4603C50.9448 25.5243 50.9348 25.6029 50.8998 25.6619C50.8508 25.7602 50.7228 25.7996 50.5118 25.7996H48.968V25.0965H50.4868C50.6938 25.0965 50.8318 25.1309 50.8998 25.2588C50.9348 25.3079 50.9448 25.3866 50.9448 25.4603Z" fill="white"/>
<path d="M25.1003 31.8188C25.1003 31.7557 25.1003 29.9329 25.1003 29.9329H24.64C24.64 29.9329 24.64 31.7482 24.64 31.7891C24.64 32.2271 24.2279 32.4759 23.6339 32.4759C22.9323 32.4759 22.587 32.2086 22.587 31.7854C22.587 31.7445 22.587 29.9329 22.587 29.9329H22.123C22.123 29.9329 22.123 31.7 22.123 31.7705C22.123 32.5427 22.7244 32.8842 23.6154 32.8842C24.536 32.8842 25.1003 32.5204 25.1003 31.8188Z" fill="white"/>
<path d="M28.4031 32.8471V32.4202H26.3947V29.9329H25.9307V32.8471H28.4031Z" fill="white"/>
<path d="M31.04 30.3561V29.9329H27.9438V30.3561H29.258V32.8471H29.7258V30.3561H31.04Z" fill="white"/>
<path d="M34.3396 30.757C34.3396 30.5491 34.295 30.3969 34.2171 30.2744C34.0797 30.0702 33.8161 29.9329 33.3781 29.9329H31.4922V32.8471H31.9488V31.6183H33.2778L34.0908 32.8471H34.6254L33.7456 31.5403C33.9683 31.5144 34.1428 31.3881 34.2356 31.2248C34.3025 31.1134 34.3396 30.9501 34.3396 30.757ZM33.8792 30.7941C33.8792 30.8758 33.8607 30.9761 33.8273 31.0429C33.7679 31.1505 33.6305 31.2062 33.4078 31.2099H31.9525C31.9525 31.2025 31.9525 30.3487 31.9525 30.3487H33.3224C33.6008 30.3487 33.7493 30.4155 33.8273 30.5417C33.8607 30.6011 33.8792 30.7013 33.8792 30.7941Z" fill="white"/>
<path d="M35.6604 32.1269H37.4758L37.847 32.8471H38.3445L36.8669 29.9329H36.3212L34.7954 32.8471H35.2817L35.6604 32.1269ZM37.2827 31.7148H35.8609L36.4511 30.5974L36.5811 30.3264L36.711 30.5974L37.2827 31.7148Z" fill="white"/>
<path d="M43.0528 32.5687C43.1679 32.435 43.2199 32.2457 43.2199 32.0415C43.2199 31.8485 43.1642 31.6554 43.0491 31.5366C42.934 31.4253 42.7484 31.3325 42.5442 31.3139C42.663 31.2953 42.7558 31.2211 42.8189 31.1431C42.9192 31.028 42.9785 30.8424 42.9785 30.6568C42.9785 30.46 42.9192 30.2818 42.7929 30.1593C42.6556 30.022 42.4217 29.9329 42.095 29.9329H40.1348V32.8471H42.2398C42.6333 32.8471 42.908 32.7469 43.0528 32.5687ZM42.4996 30.7496C42.4996 30.8795 42.4588 30.9946 42.3883 31.0614C42.3177 31.1394 42.1989 31.1728 42.0727 31.1728H40.5877V30.3338H41.9873C42.1581 30.3338 42.288 30.3672 42.3771 30.4489C42.4551 30.5231 42.4996 30.6308 42.4996 30.7496ZM42.6481 32.2865C42.5553 32.3905 42.3957 32.4425 42.1618 32.4425H40.5877V31.5775H42.173C42.3883 31.5775 42.5368 31.622 42.6259 31.7074C42.7075 31.7854 42.741 31.8856 42.741 32.0007C42.741 32.1195 42.715 32.2197 42.6481 32.2865Z" fill="white"/>
<path d="M46.5901 32.8471V32.4202H44.3256V31.5886H46.501V31.1654H44.3256V30.3561H46.5641V29.9329H43.8726V32.8471H46.5901Z" fill="white"/>
<path d="M50.2168 31.9857C50.2168 31.5105 49.9018 31.2655 49.1258 31.1764C48.9955 31.1579 48.7133 31.1282 48.5611 31.1096C47.8409 31.0242 47.6219 30.9277 47.6219 30.679C47.6219 30.4377 47.8632 30.3003 48.5908 30.3003C49.1548 30.3003 49.4448 30.4117 49.5898 30.6121C49.6308 30.6678 49.6528 30.7347 49.6638 30.7866H50.1608C50.1468 30.7012 50.1128 30.5824 50.0608 30.4859C49.8608 30.1407 49.4488 29.8919 48.5908 29.8919C47.5662 29.8882 47.143 30.2595 47.143 30.7198C47.143 31.1801 47.4734 31.414 48.331 31.5143C48.4795 31.5328 48.743 31.5625 48.873 31.5774C49.5378 31.659 49.7458 31.7593 49.7458 32.0377C49.7458 32.2939 49.5078 32.4795 48.7467 32.4795C48.1231 32.4795 47.7889 32.3681 47.6553 32.1528C47.6145 32.0934 47.5885 32.0006 47.5848 31.9375H47.0947C47.1059 32.0711 47.143 32.2159 47.2098 32.331C47.4029 32.6837 47.8558 32.8879 48.7319 32.8879C49.7788 32.8879 50.2168 32.55 50.2168 31.9857Z" fill="white"/>
<path d="M53.5462 30.3561V29.9329H50.4502V30.3561H51.7642V32.8471H52.2322V30.3561H53.5462Z" fill="white"/>
<path d="M20.8088 35.38C20.8088 35.083 20.7494 34.8825 20.6491 34.7303C20.5081 34.5112 20.2333 34.3962 19.7544 34.3962H17.9131V37.3104H18.3734V36.36C18.3734 36.36 19.6728 36.36 19.7359 36.36C20.1851 36.3563 20.4932 36.2524 20.6566 36.0148C20.7605 35.87 20.8088 35.6621 20.8088 35.38ZM20.341 35.38C20.341 35.5284 20.3261 35.6398 20.2779 35.7141C20.1925 35.8514 20.018 35.9368 19.6579 35.9368C19.6245 35.9368 18.3734 35.9368 18.3734 35.9368V34.812H19.6728C20.0106 34.812 20.1851 34.8899 20.2779 35.0421C20.3224 35.1089 20.341 35.2315 20.341 35.38Z" fill="white"/>
<path d="M24.1692 37.3104V36.8835H21.9046V36.0519H24.0801V35.6287H21.9046V34.8194H24.1432V34.3962H21.4517V37.3104H24.1692Z" fill="white"/>
<path d="M27.7102 35.2203C27.7102 35.0124 27.6657 34.8602 27.5877 34.7377C27.4503 34.5335 27.1868 34.3962 26.7487 34.3962H24.8628V37.3104H25.3194V36.0816H26.6485L27.4615 37.3104H27.9961L27.1162 36.0036C27.339 35.9777 27.5135 35.8514 27.6063 35.6881C27.6731 35.5767 27.7102 35.4134 27.7102 35.2203ZM27.2499 35.2574C27.2499 35.3391 27.2313 35.4394 27.1979 35.5062C27.1385 35.6138 27.0011 35.6695 26.7784 35.6732H25.3231C25.3231 35.6658 25.3231 34.812 25.3231 34.812H26.693C26.9714 34.812 27.1199 34.8788 27.1979 35.005C27.2313 35.0644 27.2499 35.1646 27.2499 35.2574Z" fill="white"/>
<path d="M31.1523 34.8194V34.3962H28.561V37.3104H29.0213V36.0705H31.0558V35.6361H29.0213V34.8194H31.1523Z" fill="white"/>
<path d="M33.2653 34.3442C32.6453 34.3442 32.2184 34.4964 31.9139 34.8157C31.6578 35.0644 31.5464 35.4097 31.5464 35.844C31.5464 36.3192 31.6912 36.6756 31.9585 36.9169C32.2444 37.2028 32.6824 37.3512 33.2653 37.3512C33.8667 37.3512 34.3344 37.2028 34.6129 36.902C34.8542 36.657 34.9804 36.3081 34.9804 35.8403C34.9804 35.3874 34.8727 35.0421 34.6166 34.7971C34.3233 34.4927 33.8852 34.3442 33.2653 34.3442ZM33.2653 36.9355C32.8569 36.9355 32.5673 36.8464 32.3483 36.6682C32.1256 36.4863 32.0179 36.2078 32.0179 35.8514C32.0179 35.5173 32.1107 35.2389 32.2889 35.0718C32.4931 34.8788 32.8049 34.7637 33.2616 34.7637C33.733 34.7637 34.0263 34.8751 34.2453 35.0681C34.431 35.2315 34.5126 35.521 34.5126 35.8477C34.5126 36.1781 34.4273 36.4603 34.2379 36.631C34.0189 36.8352 33.7108 36.9355 33.2653 36.9355Z" fill="white"/>
<path d="M38.4636 35.2203C38.4636 35.0124 38.419 34.8602 38.3411 34.7377C38.2037 34.5335 37.9401 34.3962 37.5021 34.3962H35.6162V37.3104H36.0728V36.0816H37.4018L38.2149 37.3104H38.7494L37.8696 36.0036C38.0923 35.9777 38.2668 35.8514 38.3596 35.6881C38.4265 35.5767 38.4636 35.4134 38.4636 35.2203ZM38.0032 35.2574C38.0032 35.3391 37.9847 35.4394 37.9513 35.5062C37.8919 35.6138 37.7545 35.6695 37.5318 35.6732H36.0765C36.0765 35.6658 36.0765 34.812 36.0765 34.812H37.4464C37.7248 34.812 37.8733 34.8788 37.9513 35.005C37.9847 35.0644 38.0032 35.1646 38.0032 35.2574Z" fill="white"/>
<path d="M42.9039 37.3104V34.3962H42.3025L41.1034 36.7944L39.9265 34.3962H39.314V37.3104H39.7558V35.0681L40.8546 37.3104H41.3372L42.4621 35.0681V37.3104H42.9039Z" fill="white"/>
<path d="M44.2073 36.5902H46.0227L46.3939 37.3104H46.8914L45.4138 34.3962H44.8681L43.3423 37.3104H43.8286L44.2073 36.5902ZM45.8296 36.1781H44.4078L44.998 35.0607L45.128 34.7897L45.2579 35.0607L45.8296 36.1781Z" fill="white"/>
<path d="M50.2358 37.3104V34.3962H49.7938V36.6607L47.8638 34.3962H47.3403V37.3104H47.7895V35.031L49.7348 37.3104H50.2358Z" fill="white"/>
<path d="M54.2408 36.2227H53.7578C53.7428 36.3563 53.6908 36.49 53.5978 36.5902C53.3978 36.8241 53.0788 36.9243 52.5888 36.9243C52.1768 36.9243 51.7348 36.8092 51.5228 36.5085C51.4118 36.3675 51.3408 36.1596 51.3408 35.8477C51.3408 35.5693 51.3898 35.3614 51.4968 35.2203C51.6748 34.9345 52.0498 34.786 52.5778 34.786C53.0898 34.786 53.4128 34.927 53.5838 35.1238C53.6798 35.2277 53.7358 35.3503 53.7538 35.495H54.2368C54.2218 35.3317 54.1698 35.1386 54.0588 34.9753C53.8208 34.6226 53.3828 34.3442 52.5808 34.3442C51.8168 34.3442 51.3598 34.5892 51.1068 34.9567C50.9438 35.1683 50.8618 35.4653 50.8618 35.844C50.8618 36.2672 50.9628 36.5791 51.1368 36.7981C51.3898 37.1434 51.8758 37.3512 52.6108 37.3512C53.3648 37.3512 53.8138 37.1248 54.0368 36.7647C54.1628 36.5902 54.2258 36.3823 54.2408 36.2227Z" fill="white"/>
<path d="M57.5632 37.3104V36.8835H55.2982V36.0519H57.4742V35.6287H55.2982V34.8194H57.5372V34.3962H54.8452V37.3104H57.5632Z" fill="white"/>
<path d="M23.6117 40.2054L24.1669 41.9142H25.9636L24.5101 42.9703L25.0653 44.679L23.6117 43.623L22.1581 44.679L22.7134 42.9703L21.2598 41.9142H23.0565L23.6117 40.2054Z" fill="white"/>
<path d="M30.0215 40.2054L30.588 41.9141H32.4214L30.9382 42.9702L31.5047 44.679L30.0215 43.6229L28.5383 44.679L29.1048 42.9702L27.6216 41.9141H29.455L30.0215 40.2054Z" fill="white"/>
<path d="M36.3804 40.2054L36.947 41.9141H38.7803L37.2971 42.9702L37.8637 44.679L36.3804 43.6229L34.8972 44.679L35.4637 42.9702L33.9805 41.9141H35.8139L36.3804 40.2054Z" fill="white"/>
<path d="M42.7393 40.2054L43.3058 41.9141H45.1392L43.656 42.9702L44.2225 44.679L42.7393 43.6229L41.2561 44.679L41.8226 42.9702L40.3394 41.9141H42.1728L42.7393 40.2054Z" fill="white"/>
<path d="M49.1489 40.2054L49.7039 41.9141H51.5009L50.0469 42.9702L50.6019 44.679L49.1489 43.6229L47.6952 44.679L48.2505 42.9702L46.7969 41.9141H48.5936L49.1489 40.2054Z" fill="white"/>
<path d="M26.726 11.3762L27.1458 12.6682H28.5043L27.4053 13.4667L27.8251 14.7586L26.726 13.9602L25.627 14.7586L26.0468 13.4667L24.9478 12.6682H26.3063L26.726 11.3762Z" fill="white"/>
<path d="M31.5724 11.3744L32.0008 12.6664H33.3869L32.2655 13.4649L32.6938 14.7568L31.5724 13.9583L30.4509 14.7568L30.8793 13.4649L29.7578 12.6664H31.144L31.5724 11.3744Z" fill="white"/>
<path d="M36.38 11.3744L36.8083 12.6664H38.1945L37.0731 13.4649L37.5014 14.7568L36.38 13.9583L35.2585 14.7568L35.6869 13.4649L34.5654 12.6664H35.9516L36.38 11.3744Z" fill="white"/>
<path d="M41.1886 11.3744L41.6169 12.6664H43.0031L41.8817 13.4649L42.31 14.7568L41.1886 13.9583L40.0671 14.7568L40.4955 13.4649L39.374 12.6664H40.7602L41.1886 11.3744Z" fill="white"/>
<path d="M46.0341 11.3744L46.4539 12.6664H47.8124L46.7134 13.4649L47.1332 14.7568L46.0341 13.9583L44.9351 14.7568L45.3549 13.4649L44.2559 12.6664H45.6143L46.0341 11.3744Z" fill="white"/>
<path clip-rule="evenodd" d="M7.37658 34.6304C5.52398 23.0395 10.9308 11.5717 21.7549 6.64709L21.8548 6.86669C11.1396 11.7417 5.77748 23.0973 7.61478 34.5923C9.64748 47.3096 19.9069 54.9366 32.4704 55.3043L32.4633 55.5455C19.8019 55.1749 9.43018 47.4789 7.37658 34.6304Z" fill="white" fill-rule="evenodd"/>
<path d="M19.4079 9.60516C17.4076 9.65076 15.0665 10.7788 13.6851 12.4172C14.7929 13.4459 16.5753 13.0656 17.858 12.8552C19.6887 12.555 21.6355 11.9734 23.363 11.1501C22.6527 9.63806 20.7393 9.57486 19.4079 9.60516Z" fill="white"/>
<path d="M17.8346 7.13766C16.6498 8.98326 15.2378 10.8176 13.7012 12.4329C12.4156 11.2261 13.1916 9.21776 13.7163 7.96886C14.6668 5.70586 16.9457 3.75436 19.3282 2.75586C19.9821 4.24356 18.5618 6.00486 17.8346 7.13766Z" fill="white"/>
<path d="M13.6192 14.7807C11.7462 15.4465 10.1367 17.3207 9.32861 19.2023C10.6754 19.8285 12.2065 18.9242 13.3266 18.3221C14.8646 17.4953 16.4337 16.3545 17.6683 15.0343C16.5528 13.8573 14.859 14.3401 13.6192 14.7807Z" fill="white"/>
<path d="M11.3491 12.9365C10.9391 15.0415 10.2517 17.2233 9.3489 19.2119C7.7731 18.4687 7.8331 16.3401 7.9006 14.9855C8.0158 12.6734 9.3093 10.0368 11.1102 8.36121C12.2127 9.54321 11.6103 11.5956 11.3491 12.9365Z" fill="white"/>
<path d="M10.0154 21.4625C8.45465 22.6937 7.50865 24.9754 7.28955 27.0129C8.76595 27.1824 9.94605 25.8388 10.8242 24.917C12.0197 23.6619 13.1514 22.0877 13.8701 20.4408C12.4627 19.673 11.032 20.6605 10.0154 21.4625Z" fill="white"/>
<path d="M7.31151 20.4231C7.58981 22.5488 7.59041 24.8485 7.31201 27.0157C5.59501 26.8048 5.02551 24.7432 4.68911 23.4499C4.10831 21.2175 4.49771 18.3339 5.62911 16.1637C7.04301 16.9464 7.13371 19.0644 7.31151 20.4231Z" fill="white"/>
<path d="M8.79049 28.756C7.55549 30.5651 7.12119 33.4002 7.67659 35.679C9.30859 35.2926 10.1176 33.4449 10.7672 32.14C11.6305 30.4057 12.3602 28.3824 12.6214 26.3973C10.8513 26.0289 9.60399 27.5642 8.79049 28.756Z" fill="white"/>
<path d="M5.54864 28.5731C6.51084 30.8008 7.26174 33.2527 7.70114 35.6735C5.82944 36.0756 4.48234 34.1102 3.69974 32.807C2.30644 30.4872 1.90054 27.2713 2.41094 24.4961C4.12404 24.8396 4.96234 27.2161 5.54864 28.5731Z" fill="white"/>
<path d="M9.65442 36.6272C8.99132 38.8218 9.45222 41.8053 10.7948 43.8685C12.2702 42.9079 12.4744 40.7937 12.6835 39.2778C12.9592 37.2774 13.089 35.0614 12.7465 32.9871C10.8594 33.228 10.0973 35.1611 9.65442 36.6272Z" fill="white"/>
<path d="M6.3752 37.5666C8.0308 39.4663 9.558 41.6323 10.8175 43.8542C9.1093 44.9206 7.1048 43.4637 5.8891 42.4327C3.7324 40.6038 2.332 37.4953 2 34.5647C3.7948 34.3235 5.3765 36.4205 6.3752 37.5666Z" fill="white"/>
<path d="M13.1339 44.0967C13.2762 46.6512 14.9393 49.3317 17.1537 50.8574C18.2231 49.3933 17.5528 47.15 17.188 45.5841C16.6969 43.4758 16.0172 41.2804 15.0071 39.3324C13.2457 40.2632 13.0402 42.4144 13.1339 44.0967Z" fill="white"/>
<path d="M10.1558 46.2545C12.5549 47.5876 14.9471 49.1607 17.1713 50.8346C15.8393 52.5886 13.1769 51.8892 11.5265 51.3254C8.6181 50.3319 6.0252 47.7129 4.6709 44.8032C6.388 43.9187 8.7386 45.467 10.1558 46.2545Z" fill="white"/>
<path d="M19.9668 50.3374C21.4067 52.9652 24.688 54.6795 27.778 55.0922C28.1106 53.1818 26.0435 51.2903 24.9171 50.0529C23.3134 48.2912 21.6423 46.463 19.7687 44.9398C18.365 46.5696 19.1071 48.7685 19.9668 50.3374Z" fill="white"/>
<path d="M17.9106 53.6678C21.1837 54.0081 24.5123 54.498 27.7835 55.0629C27.4712 57.4733 23.6461 57.8623 21.9096 58.0046C18.3491 58.2964 14.3883 56.8652 11.6304 54.4558C13.0002 52.844 16.1671 53.4866 17.9106 53.6678Z" fill="white"/>
<path d="M24.2147 4.62398C22.0172 5.25088 19.445 6.44018 18.1743 8.63558C20.4808 8.38418 22.7477 7.56348 24.9646 6.93818C27.4478 6.23768 30.0625 5.71378 32.4667 4.74688C29.8337 3.69348 26.7299 3.90638 24.2147 4.62398Z" fill="white"/>
<path clip-rule="evenodd" d="M66.728 34.5923C68.565 23.0973 63.203 11.7419 52.488 6.86669L52.588 6.64709C63.412 11.5718 68.819 23.0395 66.966 34.6304C64.913 47.4789 54.541 55.1749 41.8796 55.5455L41.8726 55.3043C54.436 54.9366 64.695 47.3096 66.728 34.5923Z" fill="white" fill-rule="evenodd"/>
<path d="M54.935 9.60516C56.935 9.65076 59.276 10.7788 60.658 12.4172C59.55 13.4459 57.767 13.0656 56.485 12.8552C54.654 12.555 52.707 11.9734 50.98 11.1501C51.69 9.63806 53.603 9.57486 54.935 9.60516Z" fill="white"/>
<path d="M56.5078 7.13766C57.6928 8.98326 59.1048 10.8176 60.6408 12.4329C61.9268 11.2261 61.1508 9.21776 60.6258 7.96886C59.6758 5.70586 57.3968 3.75436 55.0138 2.75586C54.3598 4.24356 55.7808 6.00486 56.5078 7.13766Z" fill="white"/>
<path d="M60.7238 14.7807C62.5968 15.4465 64.2058 17.3207 65.0138 19.2023C63.6668 19.8285 62.1358 18.9242 61.0158 18.3221C59.4778 17.4953 57.9088 16.3545 56.6748 15.0343C57.7898 13.8573 59.4838 14.3401 60.7238 14.7807Z" fill="white"/>
<path d="M62.9938 12.9365C63.4038 15.0415 64.0908 17.2233 64.9938 19.2119C66.5698 18.4687 66.5098 16.3401 66.4418 14.9855C66.3268 12.6734 65.0338 10.0368 63.2328 8.36121C62.1298 9.54321 62.7328 11.5956 62.9938 12.9365Z" fill="white"/>
<path d="M64.3271 21.4625C65.8881 22.6937 66.8341 24.9754 67.0531 27.0129C65.5771 27.1824 64.3971 25.8388 63.5191 24.917C62.3231 23.6619 61.1911 22.0877 60.4731 20.4408C61.8801 19.673 63.3111 20.6605 64.3271 21.4625Z" fill="white"/>
<path d="M67.0321 20.4231C66.7531 22.5486 66.7531 24.8485 67.0311 27.0157C68.7481 26.8048 69.3181 24.7432 69.6541 23.4499C70.2351 21.2175 69.8451 18.3339 68.7141 16.1637C67.3001 16.9464 67.2091 19.0644 67.0321 20.4231Z" fill="white"/>
<path d="M65.5522 28.756C66.7872 30.5651 67.2212 33.4002 66.6662 35.679C65.0342 35.2926 64.2252 33.445 63.5752 32.14C62.7122 30.4057 61.9822 28.3824 61.7212 26.3973C63.4912 26.0289 64.7392 27.5642 65.5522 28.756Z" fill="white"/>
<path d="M68.7941 28.5731C67.8321 30.8008 67.0811 33.2527 66.6421 35.6735C68.5131 36.0756 69.8601 34.1102 70.6431 32.807C72.0361 30.4872 72.4421 27.2713 71.9321 24.4961C70.2191 24.8396 69.3801 27.2161 68.7941 28.5731Z" fill="white"/>
<path d="M64.688 36.6272C65.351 38.8218 64.891 41.8053 63.548 43.8685C62.073 42.9079 61.868 40.7937 61.659 39.2778C61.384 37.2774 61.254 35.0614 61.596 32.9871C63.483 33.228 64.245 35.1611 64.688 36.6272Z" fill="white"/>
<path d="M67.9669 37.5666C66.3119 39.4664 64.7849 41.6323 63.5249 43.8542C65.2329 44.9206 67.2379 43.4637 68.4539 42.4327C70.6099 40.6038 72.0109 37.4953 72.3429 34.5647C70.5479 34.3235 68.9659 36.4205 67.9669 37.5666Z" fill="white"/>
<path d="M61.2078 44.0967C61.0658 46.6512 59.4028 49.3317 57.1888 50.8574C56.1188 49.3933 56.7898 47.1501 57.1538 45.5841C57.6448 43.4758 58.3248 41.2804 59.3348 39.3324C61.0968 40.2632 61.3018 42.4144 61.2078 44.0967Z" fill="white"/>
<path d="M64.1869 46.2545C61.7879 47.5876 59.3959 49.1607 57.1719 50.8346C58.5039 52.5886 61.1659 51.8892 62.8159 51.3254C65.7249 50.3319 68.3179 47.7129 69.6719 44.8032C67.9549 43.9187 65.6039 45.467 64.1869 46.2545Z" fill="white"/>
<path d="M54.376 50.3374C52.936 52.9652 49.655 54.6795 46.5646 55.0922C46.232 53.1818 48.299 51.2903 49.426 50.0529C51.029 48.2912 52.7 46.463 54.574 44.9398C55.978 46.5696 55.235 48.7685 54.376 50.3374Z" fill="white"/>
<path d="M56.4319 53.6678C53.1589 54.0081 49.8309 54.498 46.5591 55.0629C46.8715 57.4733 50.6969 57.8623 52.4329 58.0046C55.9939 58.2964 59.9549 56.8652 62.7119 54.4558C61.3429 52.844 58.1759 53.4866 56.4319 53.6678Z" fill="white"/>
<path d="M50.1281 4.62398C52.3251 5.25088 54.8981 6.44018 56.1681 8.63558C53.8621 8.38418 51.5951 7.56348 49.3781 6.93818C46.8949 6.23768 44.2802 5.71378 41.876 4.74688C44.5091 3.69348 47.6128 3.90638 50.1281 4.62398Z" fill="white"/>
<path d="M38.6006 3.4879L37.4731 1L36.3668 3.4416L33.7939 1.8464L35.4472 5.3207H39.5588L41.1524 1.8464L38.6006 3.4879Z" fill="white"/>
<path d="M39.5322 5.8606H35.4141V6.4683H39.5322V5.8606Z" fill="white"/>
<path d="M37.7673 52.8718L38.4309 54.914H40.5782L38.841 56.1761L39.5045 58.2183L37.7673 56.9562L36.0301 58.2183L36.6937 56.1761L34.9565 54.914H37.1038L37.7673 52.8718Z" fill="white"/>
</svg>